<svg xmlns="http://www.w3.org/2000/svg" viewBox="0 0 256 256" width="24" height="24"><path fill="currentColor" d="m237.66 178.34-32 32a8 8 0 0 1-11.32-11.32L210.69 183H192c-25.85 0-43.82-16.18-60.42-31.07C117.07 138.78 103.35 127 88 127c-13.33 0-25.61 7.29-36 21.09L33.33 164H48a8 8 0 0 1 0 16H16a8 8 0 0 1-8-8v-32a8 8 0 0 1 16 0v11.45C35.28 138.59 51.41 111 88 111c25.85 0 43.82 16.18 60.42 31.07C163.93 155.22 177.65 167 192 167h18.69l-16.35-16.34a8 8 0 0 1 11.32-11.32l32 32a8 8 0 0 1 0 11.66ZM48 89H16a8 8 0 0 1 0-16h32a8 8 0 0 1 0 16Zm162.69-16H192c-14.35 0-28.07 11.78-43.58 24.93C131.82 112.82 113.85 129 88 129H48a8 8 0 0 1 0-16h40c15.35 0 29.07-11.78 44.58-24.93C149.18 75.18 167.15 57 192 57h18.69l-16.35-16.34a8 8 0 0 1 11.32-11.32l32 32a8 8 0 0 1-11.32 11.32Z"/></svg>
